<?xml version="1.0" encoding="UTF-8"?>
<!DOCTYPE svg PUBLIC "-//W3C//DTD SVG 1.1//EN" "http://www.w3.org/Graphics/SVG/1.1/DTD/svg11.dtd">
<svg xmlns="http://www.w3.org/2000/svg" version="1.1" width="400px" height="165px" style="shape-rendering:geometricPrecision; text-rendering:geometricPrecision; image-rendering:optimizeQuality; fill-rule:evenodd; clip-rule:evenodd" xmlns:xlink="http://www.w3.org/1999/xlink">
<g><path style="opacity:0.885" fill="#fefefe" d="M 159.5,5.5 C 174.182,5.16735 188.848,5.50069 203.5,6.5C 204.833,7.83333 204.833,9.16667 203.5,10.5C 197.537,11.4959 191.537,11.8293 185.5,11.5C 185.5,29.5 185.5,47.5 185.5,65.5C 177.457,65.5646 169.623,65.5646 162,65.5C 161.667,50.5 161.333,35.5 161,20.5C 155.47,35.4242 150.136,50.4242 145,65.5C 143.602,66.0509 142.268,66.3842 141,66.5C 140.308,65.9747 139.808,65.3081 139.5,64.5C 146.573,44.9469 153.24,25.2802 159.5,5.5 Z"/></g>
<g><path style="opacity:0.902" fill="#fdfdfd" d="M 33.5,5.5 C 48.1818,5.16735 62.8485,5.50069 77.5,6.5C 84.5,25.8333 91.5,45.1667 98.5,64.5C 97.7579,65.2868 96.9246,65.9535 96,66.5C 88.3333,65.8333 80.6667,65.1667 73,64.5C 68,50.1667 63,35.8333 58,21.5C 56.6992,36.0737 56.0326,50.7403 56,65.5C 54.6667,66.8333 53.3333,66.8333 52,65.5C 51.5001,47.5031 51.3334,29.5031 51.5,11.5C 45.5,11.5 39.5,11.5 33.5,11.5C 33.5,9.5 33.5,7.5 33.5,5.5 Z"/></g>
<g><path style="opacity:1" fill="#75ad08" d="M 294.5,65.5 C 287.905,66.2882 281.238,66.6216 274.5,66.5C 273.941,47.2407 273.608,27.9074 273.5,8.5C 266.8,8.83002 260.134,8.49669 253.5,7.5C 267.167,6.16667 280.833,6.16667 294.5,7.5C 294.447,26.7386 294.447,46.0719 294.5,65.5 Z"/></g>
<g><path style="opacity:1" fill="#76ab0c" d="M 345.5,18.5 C 346.894,29.1097 347.894,39.7764 348.5,50.5C 346.396,50.7989 344.396,50.4656 342.5,49.5C 341.271,42.2477 339.271,35.2477 336.5,28.5C 337.043,28.44 337.376,28.1067 337.5,27.5C 334.889,18.386 329.223,11.886 320.5,8C 327.433,6.49424 334.433,6.1609 341.5,7C 342.636,11.095 343.97,14.9283 345.5,18.5 Z"/></g>
<g><path style="opacity:1" fill="#7ea919" d="M 345.5,18.5 C 343.97,14.9283 342.636,11.095 341.5,7C 334.433,6.1609 327.433,6.49424 320.5,8C 329.223,11.886 334.889,18.386 337.5,27.5C 337.376,28.1067 337.043,28.44 336.5,28.5C 327.926,11.7277 314.259,5.72769 295.5,10.5C 295.83,29.0076 295.497,47.3409 294.5,65.5C 294.447,46.0719 294.447,26.7386 294.5,7.5C 280.833,6.16667 267.167,6.16667 253.5,7.5C 260.134,8.49669 266.8,8.83002 273.5,8.5C 273.608,27.9074 273.941,47.2407 274.5,66.5C 273.542,66.0472 272.708,65.3805 272,64.5C 271.5,46.5031 271.333,28.5031 271.5,10.5C 263.826,10.3336 256.159,10.5003 248.5,11C 244.445,12.5644 240.779,14.7311 237.5,17.5C 237.995,15.5183 238.495,13.5183 239,11.5C 239.561,12.0219 240.228,12.3552 241,12.5C 243.305,10.4775 245.805,8.81081 248.5,7.5C 240.855,6.33521 233.188,6.16855 225.5,7C 224.264,8.38754 222.931,9.5542 221.5,10.5C 222.029,8.41663 223.029,6.58329 224.5,5C 263.833,4.33333 303.167,4.33333 342.5,5C 343.701,5.90252 344.535,7.06919 345,8.5C 345.498,11.8168 345.665,15.1501 345.5,18.5 Z"/></g>
<g><path style="opacity:0.999" fill="#76ac0b" d="M 237.5,17.5 C 230.695,27.073 226.528,37.7396 225,49.5C 223.274,50.5762 221.441,50.7429 219.5,50C 218.919,49.1074 218.585,48.1074 218.5,47C 219.914,34.8671 220.914,22.7005 221.5,10.5C 222.931,9.5542 224.264,8.38754 225.5,7C 233.188,6.16855 240.855,6.33521 248.5,7.5C 245.805,8.81081 243.305,10.4775 241,12.5C 240.228,12.3552 239.561,12.0219 239,11.5C 238.495,13.5183 237.995,15.5183 237.5,17.5 Z"/></g>
<g><path style="opacity:0.825" fill="#fafafa" d="M 195.5,77.5 C 199.167,77.5 202.833,77.5 206.5,77.5C 206.5,78.8333 206.5,80.1667 206.5,81.5C 205.167,81.5 203.833,81.5 202.5,81.5C 202.665,84.8499 202.498,88.1832 202,91.5C 201.586,91.9574 201.086,92.2907 200.5,92.5C 199.511,88.8927 199.177,85.226 199.5,81.5C 198.167,81.5 196.833,81.5 195.5,81.5C 195.5,80.1667 195.5,78.8333 195.5,77.5 Z"/></g>
<g><path style="opacity:0.607" fill="#fcfcfc" d="M 274.5,77.5 C 277.685,77.0196 280.519,77.6863 283,79.5C 283.507,80.9961 283.007,82.1627 281.5,83C 285.062,88.2611 283.728,91.4278 277.5,92.5C 271.357,91.1895 269.191,87.5228 271,81.5C 271.69,79.6498 272.856,78.3164 274.5,77.5 Z M 276.5,81.5 C 278.103,81.3118 279.437,81.8118 280.5,83C 279.62,84.3561 279.286,85.8561 279.5,87.5C 274.294,87.5405 273.294,85.5405 276.5,81.5 Z"/></g>
<g><path style="opacity:0.637" fill="#fbfbfb" d="M 314.5,77.5 C 325.029,76.6898 328.029,81.0231 323.5,90.5C 317.133,93.6531 312.8,91.8198 310.5,85C 310.994,81.9919 312.327,79.4919 314.5,77.5 Z M 317.5,81.5 C 321.013,82.0282 322.013,83.8615 320.5,87C 318.888,87.7203 317.388,87.5536 316,86.5C 317.346,85.6719 317.846,84.0052 317.5,81.5 Z"/></g>
<g><path style="opacity:0.717" fill="#fbfbfb" d="M 333.5,77.5 C 336.518,77.3354 339.518,77.502 342.5,78C 343.931,78.4652 345.097,79.2986 346,80.5C 347.323,90.8275 342.99,94.1609 333,90.5C 332.232,86.0804 332.398,81.7471 333.5,77.5 Z M 337.5,81.5 C 341.701,81.4258 343.035,83.2591 341.5,87C 340.207,87.49 338.873,87.6567 337.5,87.5C 337.5,85.5 337.5,83.5 337.5,81.5 Z"/></g>
<g><path style="opacity:0.662" fill="#fbfbfb" d="M 354.5,77.5 C 355.833,77.5 357.167,77.5 358.5,77.5C 358.827,82.2137 358.493,86.8804 357.5,91.5C 356.094,92.6682 354.928,92.3348 354,90.5C 353.232,86.0804 353.398,81.7471 354.5,77.5 Z"/></g>
<g><path style="opacity:0.804" fill="#7da521" d="M 164.5,77.5 C 176.075,75.718 179.742,80.0514 175.5,90.5C 172.298,91.1272 169.131,91.7939 166,92.5C 165.667,92.1667 165.333,91.8333 165,91.5C 164.501,86.8452 164.334,82.1785 164.5,77.5 Z M 168.5,81.5 C 170.903,81.695 172.57,82.8616 173.5,85C 172.381,86.876 170.714,87.7093 168.5,87.5C 168.5,85.5 168.5,83.5 168.5,81.5 Z"/></g>
<g><path style="opacity:0.676" fill="#fbfbfb" d="M 217.5,77.5 C 219.144,77.2865 220.644,77.6198 222,78.5C 224.089,82.6683 225.589,87.0017 226.5,91.5C 224.11,91.1449 221.777,90.4783 219.5,89.5C 217.223,90.4783 214.89,91.1449 212.5,91.5C 213.595,86.6402 215.262,81.9735 217.5,77.5 Z"/></g>
<g><path style="opacity:0.672" fill="#fafafa" d="M 233.5,77.5 C 237.167,77.5 240.833,77.5 244.5,77.5C 244.5,78.8333 244.5,80.1667 244.5,81.5C 242.143,81.3367 239.81,81.5034 237.5,82C 239.25,83.3186 241.25,83.8186 243.5,83.5C 243.5,84.8333 243.5,86.1667 243.5,87.5C 241.5,87.5 239.5,87.5 237.5,87.5C 237.5,88.8333 237.5,90.1667 237.5,91.5C 236.167,91.5 234.833,91.5 233.5,91.5C 233.5,86.8333 233.5,82.1667 233.5,77.5 Z"/></g>
<g><path style="opacity:0.671" fill="#fbfbfb" d="M 255.5,77.5 C 256.978,77.238 258.311,77.5713 259.5,78.5C 261.464,82.7543 263.131,87.0876 264.5,91.5C 261.77,91.5266 259.27,90.8599 257,89.5C 254.793,90.0297 252.793,91.0297 251,92.5C 250.667,92.1667 250.333,91.8333 250,91.5C 250.949,86.5831 252.783,81.9165 255.5,77.5 Z"/></g>
<g><path style="opacity:0.696" fill="#fafbfa" d="M 291.5,77.5 C 292.833,77.5 294.167,77.5 295.5,77.5C 295.5,79.1667 295.5,80.8333 295.5,82.5C 296.833,82.5 298.167,82.5 299.5,82.5C 299.5,80.8333 299.5,79.1667 299.5,77.5C 300.833,77.5 302.167,77.5 303.5,77.5C 303.666,82.1785 303.499,86.8452 303,91.5C 302.586,91.9574 302.086,92.2907 301.5,92.5C 300.012,90.8507 299.012,88.8507 298.5,86.5C 297.402,90.3605 296.569,90.3605 296,86.5C 295.749,88.433 295.249,90.2663 294.5,92C 293.365,92.7494 292.365,92.5827 291.5,91.5C 290.172,86.8032 290.172,82.1365 291.5,77.5 Z"/></g>
<g><path style="opacity:0.941" fill="#84a91f" d="M 41.5,76.5 C 48.2871,77.7302 50.7871,81.7302 49,88.5C 45.8615,92.5765 42.0281,93.4099 37.5,91C 33.2319,84.6363 34.5652,79.803 41.5,76.5 Z M 41.5,81.5 C 46.0209,83.4372 46.1876,85.4372 42,87.5C 37.7087,85.9287 37.542,83.9287 41.5,81.5 Z"/></g>
<g><path style="opacity:0.863" fill="#89b023" d="M 12.5,77.5 C 13.552,77.3505 14.552,77.5172 15.5,78C 17.1233,80.0795 18.6233,82.2462 20,84.5C 21.3662,82.6297 22.5328,80.6297 23.5,78.5C 24.6888,77.5713 26.0222,77.238 27.5,77.5C 27.9415,82.6912 27.4415,87.6912 26,92.5C 24.1294,91.0027 23.1294,89.0027 23,86.5C 20.8003,91.6689 18.467,91.6689 16,86.5C 15.8078,88.5767 15.3078,90.5767 14.5,92.5C 13.914,92.2907 13.414,91.9574 13,91.5C 12.5008,86.8452 12.3342,82.1785 12.5,77.5 Z"/></g>
<g><path style="opacity:0.931" fill="#85ad23" d="M 81.5,77.5 C 83.1439,77.2865 84.6439,77.6198 86,78.5C 87.0587,81.6179 88.3921,84.6179 90,87.5C 90.7975,89.2588 90.6309,90.9255 89.5,92.5C 85.6224,88.5866 81.789,88.5866 78,92.5C 77.6667,92.1667 77.3333,91.8333 77,91.5C 77.7735,86.677 79.2735,82.0103 81.5,77.5 Z"/></g>
<g><path style="opacity:0.922" fill="#80aa1e" d="M 97.5,77.5 C 98.9778,77.238 100.311,77.5713 101.5,78.5C 102.414,80.6641 103.581,82.6641 105,84.5C 106.377,82.2462 107.877,80.0795 109.5,78C 110.448,77.5172 111.448,77.3505 112.5,77.5C 112.5,82.1667 112.5,86.8333 112.5,91.5C 111.167,91.5 109.833,91.5 108.5,91.5C 108.657,90.1266 108.49,88.7932 108,87.5C 106,91.5 104,91.5 102,87.5C 101.51,88.7932 101.343,90.1266 101.5,91.5C 100.167,91.5 98.8333,91.5 97.5,91.5C 97.5,86.8333 97.5,82.1667 97.5,77.5 Z"/></g>
<g><path style="opacity:0.988" fill="#80ac21" d="M 121.5,77.5 C 122.552,77.3505 123.552,77.5172 124.5,78C 125.63,80.4281 127.13,82.5947 129,84.5C 130.039,82.2537 131.206,80.087 132.5,78C 133.793,77.51 135.127,77.3433 136.5,77.5C 136.5,82.1667 136.5,86.8333 136.5,91.5C 135.167,91.5 133.833,91.5 132.5,91.5C 132.66,89.8008 132.494,88.1341 132,86.5C 129.667,91.8333 127.333,91.8333 125,86.5C 124.506,88.1341 124.34,89.8008 124.5,91.5C 123.167,91.5 121.833,91.5 120.5,91.5C 120.54,86.8075 120.873,82.1408 121.5,77.5 Z"/></g>
<g><path style="opacity:0.604" fill="#87b124" d="M 148.5,77.5 C 149.978,77.238 151.311,77.5713 152.5,78.5C 154.029,82.3917 155.696,86.2251 157.5,90C 157.37,91.0588 156.87,91.8921 156,92.5C 152.254,88.6073 148.588,88.6073 145,92.5C 144.075,91.9535 143.242,91.2868 142.5,90.5C 144.24,86.0207 146.24,81.6874 148.5,77.5 Z"/></g>
<g><path style="opacity:0.443" fill="#8aaf26" d="M 57.5,77.5 C 58.5,77.5 59.5,77.5 60.5,77.5C 60.5,79.1667 60.5,80.8333 60.5,82.5C 62.1667,82.5 63.8333,82.5 65.5,82.5C 65.5,80.8333 65.5,79.1667 65.5,77.5C 66.8333,77.5 68.1667,77.5 69.5,77.5C 69.5,82.1667 69.5,86.8333 69.5,91.5C 68.1667,91.5 66.8333,91.5 65.5,91.5C 66.1693,87.3241 64.6693,85.9907 61,87.5C 60.7837,89.3839 60.117,91.0506 59,92.5C 56.2246,87.8422 55.7246,82.8422 57.5,77.5 Z"/></g>
<g><path style="opacity:0.8" fill="#fcfcfc" d="M 51.5,103.5 C 53.1667,103.5 54.8333,103.5 56.5,103.5C 56.5,121.5 56.5,139.5 56.5,157.5C 62.8333,157.5 69.1667,157.5 75.5,157.5C 75.9492,159.977 75.2825,161.977 73.5,163.5C 60.2162,162.518 46.8828,162.185 33.5,162.5C 33.5,160.833 33.5,159.167 33.5,157.5C 39.5,157.5 45.5,157.5 51.5,157.5C 51.5,139.5 51.5,121.5 51.5,103.5 Z"/></g>
<g><path style="opacity:0.918" fill="#fdfdfd" d="M 87.5,103.5 C 95.8599,103.169 104.193,103.502 112.5,104.5C 114.945,110.392 117.112,116.392 119,122.5C 121.52,116.612 123.853,110.612 126,104.5C 127.814,103.24 129.647,103.24 131.5,104.5C 124.901,123.129 118.401,141.796 112,160.5C 111.3,162.032 110.134,163.032 108.5,163.5C 100.311,143.933 93.3106,123.933 87.5,103.5 Z"/></g>
<g><path style="opacity:0.916" fill="#fefefe" d="M 162.5,103.5 C 170.167,103.5 177.833,103.5 185.5,103.5C 185.5,121.5 185.5,139.5 185.5,157.5C 191.5,157.5 197.5,157.5 203.5,157.5C 203.5,159.167 203.5,160.833 203.5,162.5C 183.5,162.5 163.5,162.5 143.5,162.5C 143.5,160.833 143.5,159.167 143.5,157.5C 149.5,157.5 155.5,157.5 161.5,157.5C 161.181,139.423 161.514,121.423 162.5,103.5 Z"/></g>
<g><path style="opacity:1" fill="#77af04" d="M 272.5,104.5 C 279.568,105.182 286.734,105.849 294,106.5C 294.333,122.833 294.667,139.167 295,155.5C 300.083,156.307 305.25,156.807 310.5,157C 295.167,157.333 279.833,157.667 264.5,158C 263.944,158.383 263.611,158.883 263.5,159.5C 260.223,159.216 257.057,159.549 254,160.5C 252,158.167 252,155.833 254,153.5C 259.741,154.475 265.575,154.808 271.5,154.5C 271.17,137.658 271.503,120.992 272.5,104.5 Z"/></g>
<g><path style="opacity:0.961" fill="#7ca720" d="M 263.5,159.5 C 263.611,158.883 263.944,158.383 264.5,158C 279.833,157.667 295.167,157.333 310.5,157C 305.25,156.807 300.083,156.307 295,155.5C 294.667,139.167 294.333,122.833 294,106.5C 286.734,105.849 279.568,105.182 272.5,104.5C 279.982,103.508 287.648,103.175 295.5,103.5C 295.5,120.5 295.5,137.5 295.5,154.5C 301.833,154.5 308.167,154.5 314.5,154.5C 314.5,156.167 314.5,157.833 314.5,159.5C 297.5,159.5 280.5,159.5 263.5,159.5 Z"/></g>
</svg>
